<svg xmlns="http://www.w3.org/2000/svg" width="20" height="20" viewBox="0 0 20 20">
  <path d="M10,0 C15.5228475,0 20,4.47715251 20,10 C20,15.5228475 15.5228475,20 10,20 C4.47715251,20 0,15.5228475 0,10 C0,4.47715251 4.47715251,0 10,0 Z M10,4 C9.44771525,4 9,4.44771525 9,5 L9,5 L9,9 L5,9 C4.44771525,9 4,9.44771525 4,10 C4,10.5522847 4.44771525,11 5,11 L5,11 L9,11 L9,15 C9,15.5522847 9.44771525,16 10,16 C10.5522847,16 11,15.5522847 11,15 L11,15 L11,11 L15,11 C15.5522847,11 16,10.5522847 16,10 C16,9.44771525 15.5522847,9 15,9 L15,9 L11,9 L11,5 C11,4.44771525 10.5522847,4 10,4 Z"/>
</svg>
