<svg xmlns="http://www.w3.org/2000/svg" width="500" height="500" viewBox="0 0 500 500">
  <path d="M483.090551,302.362205 C429.96063,318.42126 372.805118,314.63878 322.26378,291.716535 C271.713583,268.794291 231.212598,228.293307 208.287402,177.75 C185.36122,127.199803 181.577756,70.0433071 197.637795,16.9232283 C199.018012,12.3672244 197.783898,7.42293307 194.423622,4.0511811 C191.063287,0.683169291 186.122835,-0.566338583 181.563386,0.798523622 C125.053543,17.8378937 76.2090551,53.9599409 43.3645669,102.993406 C10.5190945,152.032776 -4.29094488,210.946161 1.46102362,269.696161 C7.21299213,328.446161 33.1726378,383.367421 74.9068898,425.099705 C116.641142,466.833957 171.567323,492.793602 230.310433,498.545571 C289.054528,504.301181 347.967913,489.49124 397.013189,456.642028 C446.052559,423.796555 482.173622,374.953051 499.217913,318.443209 C500.586614,313.883366 499.340945,308.942913 495.969094,305.582972 C492.601083,302.222638 487.656791,300.988484 483.104921,302.368799 L483.090551,302.362205 Z M255.167323,473.917323 C202.225394,473.917323 150.915354,455.58563 109.96063,422.028543 C69.0108268,388.471457 40.9478346,341.765748 30.5433071,289.853346 C20.1397638,237.941929 28.0365157,184.026575 52.8966535,137.284449 C77.7529528,90.5364173 118.034449,53.8464567 166.892717,33.4458661 C155.965551,88.4635827 163.490157,145.552165 188.304134,195.857283 C213.11811,246.165354 253.833661,286.880906 304.140748,311.693898 C354.448819,336.507874 411.53248,344.031496 466.552165,333.101378 C448.974409,374.689961 419.573819,410.20374 381.995079,435.237205 C344.416339,460.270669 300.317913,473.719488 255.16437,473.917323 L255.167323,473.917323 Z"/>
</svg>
